<svg id="Layer_1" data-name="Layer 1" xmlns="http://www.w3.org/2000/svg" viewBox="0 0 48 48"><defs><style>.cls-1{fill:#333;}</style></defs><path class="cls-1" d="M8.68,5.37h2.15L14,14.44H12l-.6-1.86H8l-.61,1.86h-2ZM8.56,11h2.32L9.74,7.45Z"/><path class="cls-1" d="M27.29,20.63A2.34,2.34,0,0,1,27.7,22a2,2,0,0,1-.42,1.34,1.94,1.94,0,0,1-.69.51,2.09,2.09,0,0,1,1.05.8A2.46,2.46,0,0,1,28,26a2.66,2.66,0,0,1-.4,1.45,2.57,2.57,0,0,1-.64.71,2.42,2.42,0,0,1-1,.46,6.4,6.4,0,0,1-1.28.12H20.55V19.66h4.39A2.8,2.8,0,0,1,27.29,20.63Zm-4.93.61v2h2.21a1.84,1.84,0,0,0,1-.23.85.85,0,0,0,.36-.79.81.81,0,0,0-.48-.84,3.29,3.29,0,0,0-1.08-.14Zm0,3.5v2.42h2.2a2.23,2.23,0,0,0,.92-.16,1.15,1.15,0,0,0,.6-1.14,1,1,0,0,0-.58-1,2.2,2.2,0,0,0-.91-.15Z"/><path class="cls-1" d="M8.7,19.66h2.15l3.21,9.07H12l-.6-1.86H8.06l-.61,1.86h-2ZM8.58,25.3H10.9L9.76,21.74Z"/><path class="cls-1" d="M27.23,34.74a2.26,2.26,0,0,1,.42,1.38,2,2,0,0,1-.42,1.34,2.29,2.29,0,0,1-.69.51,2.09,2.09,0,0,1,1.05.8,2.46,2.46,0,0,1,.35,1.33,2.66,2.66,0,0,1-.4,1.45,2.6,2.6,0,0,1-.65.71,2.64,2.64,0,0,1-1,.46,6.4,6.4,0,0,1-1.28.12H20.5V33.77h4.38A2.78,2.78,0,0,1,27.23,34.74Zm-4.92.6v2h2.2a1.8,1.8,0,0,0,1-.22.86.86,0,0,0,.37-.8.8.8,0,0,0-.49-.83,3.2,3.2,0,0,0-1.07-.15Zm0,3.51v2.41h2.2a2.11,2.11,0,0,0,.92-.16A1.13,1.13,0,0,0,26,40a1,1,0,0,0-.58-1,2.23,2.23,0,0,0-.91-.15Z"/><path class="cls-1" d="M35.83,6.07A3.72,3.72,0,0,1,38.62,5a3.74,3.74,0,0,1,3.31,1.5,3.17,3.17,0,0,1,.62,1.69H40.66a2.56,2.56,0,0,0-.47-1,2.05,2.05,0,0,0-3.09.24,4.07,4.07,0,0,0-.59,2.36,3.6,3.6,0,0,0,.62,2.29,2,2,0,0,0,1.57.76,1.75,1.75,0,0,0,1.48-.66,2.71,2.71,0,0,0,.47-1.05h1.89a4.11,4.11,0,0,1-1.25,2.41,3.62,3.62,0,0,1-2.57.93,3.86,3.86,0,0,1-3-1.25,5.06,5.06,0,0,1-1.11-3.46A5,5,0,0,1,35.83,6.07Z"/><path class="cls-1" d="M35.83,34.68a3.72,3.72,0,0,1,2.79-1.12,3.74,3.74,0,0,1,3.31,1.5,3.14,3.14,0,0,1,.62,1.69H40.66a2.56,2.56,0,0,0-.47-1A2.05,2.05,0,0,0,37.1,36a4.07,4.07,0,0,0-.59,2.36,3.6,3.6,0,0,0,.62,2.29,2,2,0,0,0,1.57.76,1.75,1.75,0,0,0,1.48-.66,2.71,2.71,0,0,0,.47-1h1.89a4.11,4.11,0,0,1-1.25,2.41,3.62,3.62,0,0,1-2.57.93,3.86,3.86,0,0,1-3-1.25,5.06,5.06,0,0,1-1.11-3.46A5,5,0,0,1,35.83,34.68Z"/></svg>