<?xml version="1.0" encoding="UTF-8" standalone="no"?>
<svg
   version="1.1"
   x="0px"
   y="0px"
   viewBox="0 0 512 512"
   enable-background="new 0 0 512 512"
   xml:space="preserve"
   id="svg12"
   sodipodi:docname="noun-initializing-585602.svg"
   width="512"
   height="512"
   inkscape:version="1.2.1 (9c6d41e, 2022-07-14)"
   xmlns:inkscape="http://www.inkscape.org/namespaces/inkscape"
   xmlns:sodipodi="http://sodipodi.sourceforge.net/DTD/sodipodi-0.dtd"
   xmlns="http://www.w3.org/2000/svg"
   xmlns:svg="http://www.w3.org/2000/svg"><defs
     id="defs16" /><sodipodi:namedview
     id="namedview14"
     pagecolor="#ffffff"
     bordercolor="#000000"
     borderopacity="0.25"
     inkscape:showpageshadow="2"
     inkscape:pageopacity="0.0"
     inkscape:pagecheckerboard="0"
     inkscape:deskcolor="#d1d1d1"
     showgrid="false"
     inkscape:zoom="0.81597408"
     inkscape:cx="87.012567"
     inkscape:cy="278.19511"
     inkscape:window-width="1449"
     inkscape:window-height="916"
     inkscape:window-x="270"
     inkscape:window-y="1118"
     inkscape:window-maximized="1"
     inkscape:current-layer="svg12" /><g
     id="g6"><path
       d="m 478.7,281.4 c -11.6,0 -22,7.9 -24.6,19.2 -20.4,90.7 -101.4,158.6 -198.1,158.6 -54.1,0 -105.5,-21.7 -143.5,-59.7 l 46.1,-46.1 h -127 v 127 l 45,-45.1 c 47.5,47.6 111.7,74.7 179.4,74.7 120.7,0 222,-84.7 247.7,-197.7 3.6,-15.8 -8.8,-30.9 -25,-30.9 z"
       id="path2" /><path
       d="M 57.9,211.4 C 78.3,120.7 159.3,52.8 256,52.8 c 54.1,0 105.5,21.7 143.5,59.7 l -46.1,46.1 h 127 V 31.6 L 435.3,76.7 C 387.9,29.1 323.7,2 256,2 135.3,2 34,86.6 8.3,199.7 c -3.6,15.8 8.8,30.9 25,30.9 11.7,0 22.1,-7.9 24.6,-19.2 z"
       id="path4" /></g></svg>
