<svg xmlns="http://www.w3.org/2000/svg" viewBox="0 0 48 48"><defs><style>.cls-1{fill:none;stroke:#b2b2b2;stroke-miterlimit:10;stroke-width:2px;}.cls-2{fill:#333;}</style></defs><g id="Layer_1" data-name="Layer 1"><line class="cls-1" x1="24" y1="6.13" x2="24" y2="41.87"/><line class="cls-1" x1="3.12" y1="24" x2="44.88" y2="24"/></g><g id="Draw_Layer" data-name="Draw Layer"><path class="cls-2" d="M7.34,11.56,7,13.67l0,0a2.27,2.27,0,0,1,.83-.55,2.79,2.79,0,0,1,1-.17,2.77,2.77,0,0,1,1.22.25,2.89,2.89,0,0,1,.9.68,3.1,3.1,0,0,1,.56,1,3.78,3.78,0,0,1,.19,1.23,3.19,3.19,0,0,1-.28,1.34,3.56,3.56,0,0,1-.75,1.07,3.38,3.38,0,0,1-2.43.93,4.64,4.64,0,0,1-1.3-.18,3.25,3.25,0,0,1-1.1-.55,2.76,2.76,0,0,1-.76-.93,2.88,2.88,0,0,1-.3-1.28H6.66a1.54,1.54,0,0,0,.48,1,1.48,1.48,0,0,0,1,.37,1.47,1.47,0,0,0,.67-.15,1.54,1.54,0,0,0,.51-.4,1.76,1.76,0,0,0,.32-.57,2.19,2.19,0,0,0,.11-.67,2.15,2.15,0,0,0-.11-.68,1.49,1.49,0,0,0-.32-.56,1.52,1.52,0,0,0-.5-.37,1.62,1.62,0,0,0-.68-.14,1.7,1.7,0,0,0-.83.18,1.86,1.86,0,0,0-.59.57H5.06L6,10h5.2v1.56Z"/><path class="cls-2" d="M19,12.35a2.12,2.12,0,0,0-1.1-.88,2.3,2.3,0,0,0-.74-.13,2.37,2.37,0,0,0-1.2.28,2.24,2.24,0,0,0-.8.73,3.14,3.14,0,0,0-.44,1,4.88,4.88,0,0,0-.14,1.21,4.57,4.57,0,0,0,.14,1.17,3.12,3.12,0,0,0,.44,1,2.31,2.31,0,0,0,.8.72,2.47,2.47,0,0,0,1.2.28,1.94,1.94,0,0,0,1.5-.59,2.71,2.71,0,0,0,.65-1.54h2a5.08,5.08,0,0,1-.41,1.61A4.06,4.06,0,0,1,20,18.49a3.62,3.62,0,0,1-1.28.77,4.65,4.65,0,0,1-1.61.27,5,5,0,0,1-2-.38,4.22,4.22,0,0,1-1.47-1,4.63,4.63,0,0,1-.91-1.57,5.56,5.56,0,0,1-.32-1.94,5.73,5.73,0,0,1,.32-2A4.62,4.62,0,0,1,13.67,11,4.17,4.17,0,0,1,15.14,10a5.21,5.21,0,0,1,3.45-.16,3.83,3.83,0,0,1,1.25.66,3.65,3.65,0,0,1,.92,1.07A4,4,0,0,1,21.21,13h-2A1.68,1.68,0,0,0,19,12.35Z"/><path class="cls-2" d="M31.43,11.49a1.1,1.1,0,0,0-.82-.35,1.24,1.24,0,0,0-.85.3,2.17,2.17,0,0,0-.54.73,4,4,0,0,0-.29.93,6.39,6.39,0,0,0-.11.88l0,0a2.26,2.26,0,0,1,.9-.8A2.86,2.86,0,0,1,31,13a2.69,2.69,0,0,1,1.17.26,2.85,2.85,0,0,1,1,.69,2.64,2.64,0,0,1,.55,1,3.46,3.46,0,0,1,.17,1.1,3.66,3.66,0,0,1-.23,1.34,3.06,3.06,0,0,1-1.7,1.8,3.36,3.36,0,0,1-1.33.26A3.3,3.3,0,0,1,28.81,19a3.34,3.34,0,0,1-1.11-1.1,4.72,4.72,0,0,1-.57-1.54A10.08,10.08,0,0,1,27,14.59a7.85,7.85,0,0,1,.2-1.73,4.93,4.93,0,0,1,.64-1.56,3.52,3.52,0,0,1,1.13-1.14,3.13,3.13,0,0,1,1.69-.44,3.7,3.7,0,0,1,1.12.17,2.92,2.92,0,0,1,.92.5,2.58,2.58,0,0,1,.65.81,3.08,3.08,0,0,1,.33,1.1H31.86A1.68,1.68,0,0,0,31.43,11.49Zm-1.59,3a1.26,1.26,0,0,0-.47.38,1.51,1.51,0,0,0-.28.55,2.39,2.39,0,0,0-.09.66,1.93,1.93,0,0,0,.1.63,1.57,1.57,0,0,0,.29.56,1.39,1.39,0,0,0,.47.4,1.47,1.47,0,0,0,.64.14,1.34,1.34,0,0,0,.61-.14,1.49,1.49,0,0,0,.44-.39,1.68,1.68,0,0,0,.28-.55,2.16,2.16,0,0,0,.09-.62,2.82,2.82,0,0,0-.08-.65,2.05,2.05,0,0,0-.26-.56,1.58,1.58,0,0,0-.45-.4,1.28,1.28,0,0,0-.63-.15A1.53,1.53,0,0,0,29.84,14.53Z"/><path class="cls-2" d="M39.48,9.72a5.86,5.86,0,0,1,1.24.12,2.77,2.77,0,0,1,1,.39,1.84,1.84,0,0,1,.62.73,2.48,2.48,0,0,1,.22,1.12,2.06,2.06,0,0,1-.33,1.19,2.39,2.39,0,0,1-1,.79,2.31,2.31,0,0,1,1.31.88A2.65,2.65,0,0,1,43,16.47a2.55,2.55,0,0,1-.28,1.24,2.4,2.4,0,0,1-.75.86,3.23,3.23,0,0,1-1.08.49,4.69,4.69,0,0,1-1.24.16H35V9.72Zm-.26,3.85a1.5,1.5,0,0,0,.92-.27,1,1,0,0,0,.36-.87,1.08,1.08,0,0,0-.12-.54.92.92,0,0,0-.32-.33,1.41,1.41,0,0,0-.46-.17,3.29,3.29,0,0,0-.54-.05h-2v2.23Zm.12,4a2.72,2.72,0,0,0,.58-.06,1.59,1.59,0,0,0,.5-.2,1,1,0,0,0,.34-.38,1.35,1.35,0,0,0,.12-.61,1.25,1.25,0,0,0-.41-1.05A1.76,1.76,0,0,0,39.38,15H37.1V17.6Z"/><path class="cls-2" d="M8.31,32.42A1.77,1.77,0,0,0,9,32.27a1.28,1.28,0,0,0,.49-.36,1,1,0,0,0,.19-.64,1.1,1.1,0,0,0-.4-.92A1.42,1.42,0,0,0,8.33,30a1.32,1.32,0,0,0-1.09.47,1.85,1.85,0,0,0-.35,1.19H5.09a4.18,4.18,0,0,1,.26-1.31,3.18,3.18,0,0,1,.65-1,3.05,3.05,0,0,1,1-.66,3.58,3.58,0,0,1,1.3-.23,3.9,3.9,0,0,1,1.12.17,3.29,3.29,0,0,1,1,.5,2.66,2.66,0,0,1,.72.81,2.12,2.12,0,0,1,.28,1.1,2.24,2.24,0,0,1-.32,1.2,1.68,1.68,0,0,1-1,.71v0a2.1,2.1,0,0,1,1.21.75,2.2,2.2,0,0,1,.44,1.37,2.86,2.86,0,0,1-.29,1.3,2.79,2.79,0,0,1-.76,1A3.47,3.47,0,0,1,9.63,38a4.36,4.36,0,0,1-1.3.2,4.29,4.29,0,0,1-1.43-.23,2.89,2.89,0,0,1-1.1-.66,2.77,2.77,0,0,1-.7-1.06,3.55,3.55,0,0,1-.23-1.43H6.66a2.78,2.78,0,0,0,.12.71,1.54,1.54,0,0,0,.31.58,1.41,1.41,0,0,0,.5.4,1.55,1.55,0,0,0,.71.14,1.58,1.58,0,0,0,1.08-.39,1.37,1.37,0,0,0,.44-1.07,1.31,1.31,0,0,0-.21-.81,1.19,1.19,0,0,0-.53-.41,2.17,2.17,0,0,0-.69-.14c-.26,0-.5,0-.73,0V32.42A3.53,3.53,0,0,0,8.31,32.42Z"/><path class="cls-2" d="M17.68,28.47,21.24,38H19.07l-.72-2.11H14.79L14.05,38H12l3.59-9.5Zm.12,5.83-1.19-3.49h0L15.34,34.3Z"/><path class="cls-2" d="M30.16,32.65a2.29,2.29,0,0,0,.65-.15,1.3,1.3,0,0,0,.49-.37,1,1,0,0,0,.19-.64,1.11,1.11,0,0,0-.4-.92,1.42,1.42,0,0,0-.92-.31,1.26,1.26,0,0,0-1.08.47,1.78,1.78,0,0,0-.35,1.19h-1.8a3.86,3.86,0,0,1,.26-1.31,2.83,2.83,0,0,1,.65-1,3.05,3.05,0,0,1,1-.66,3.58,3.58,0,0,1,1.3-.23,3.94,3.94,0,0,1,1.12.16,3.13,3.13,0,0,1,1,.5,2.86,2.86,0,0,1,.73.82,2.16,2.16,0,0,1,.28,1.1,2.21,2.21,0,0,1-.33,1.2,1.63,1.63,0,0,1-1,.7v0a2,2,0,0,1,1.21.75,2.12,2.12,0,0,1,.44,1.37,2.78,2.78,0,0,1-1.05,2.26,3.42,3.42,0,0,1-1.1.59,4.69,4.69,0,0,1-2.74,0,3.05,3.05,0,0,1-1.1-.66A2.87,2.87,0,0,1,27,36.43,3.63,3.63,0,0,1,26.71,35h1.8a2.85,2.85,0,0,0,.12.72,1.62,1.62,0,0,0,.31.58,1.21,1.21,0,0,0,.5.39,1.52,1.52,0,0,0,.71.15,1.59,1.59,0,0,0,1.08-.39,1.64,1.64,0,0,0,.23-1.89,1.17,1.17,0,0,0-.53-.4,1.94,1.94,0,0,0-.7-.15l-.72,0V32.65A3.52,3.52,0,0,0,30.16,32.65Z"/><path class="cls-2" d="M40.89,31.23a2.11,2.11,0,0,0-.47-.52,2.16,2.16,0,0,0-.63-.36,2.25,2.25,0,0,0-.74-.12,2.47,2.47,0,0,0-1.2.27,2.31,2.31,0,0,0-.79.73,3.09,3.09,0,0,0-.45,1.05,5.34,5.34,0,0,0-.14,1.21,4.91,4.91,0,0,0,.14,1.16,2.94,2.94,0,0,0,.45,1,2.31,2.31,0,0,0,.79.73,2.47,2.47,0,0,0,1.2.27,1.94,1.94,0,0,0,1.5-.58,2.75,2.75,0,0,0,.66-1.55h2a4.77,4.77,0,0,1-.41,1.61,3.94,3.94,0,0,1-.88,1.23,3.84,3.84,0,0,1-1.28.77,4.61,4.61,0,0,1-1.61.26,4.89,4.89,0,0,1-2-.37,4.38,4.38,0,0,1-1.47-1,4.6,4.6,0,0,1-.92-1.56,5.85,5.85,0,0,1-.32-1.94,6,6,0,0,1,.32-2,4.74,4.74,0,0,1,.92-1.59,4.14,4.14,0,0,1,1.47-1.06,4.73,4.73,0,0,1,2-.39,4.89,4.89,0,0,1,1.49.23,4,4,0,0,1,1.25.66,3.52,3.52,0,0,1,.91,1.07,3.73,3.73,0,0,1,.45,1.46h-2A1.87,1.87,0,0,0,40.89,31.23Z"/></g></svg>