<?xml version="1.0" encoding="utf-8"?>
<!-- Generator: Adobe Illustrator 16.0.0, SVG Export Plug-In . SVG Version: 6.00 Build 0)  -->
<!DOCTYPE svg PUBLIC "-//W3C//DTD SVG 1.1//EN" "http://www.w3.org/Graphics/SVG/1.1/DTD/svg11.dtd">
<svg version="1.1" id="Layer_1" xmlns="http://www.w3.org/2000/svg" xmlns:xlink="http://www.w3.org/1999/xlink" x="0px" y="0px"
	 width="48px" height="48px" viewBox="0 0 48 48" enable-background="new 0 0 48 48" xml:space="preserve">
<g>
	<polygon fill="#FFFFFF" stroke="#FFFFFF" stroke-miterlimit="10" points="15.062,3.813 15.062,37.5 39.188,37.5 39.188,11.437
		30.188,4.063 	"/>
	<path fill="#333333" d="M31.166,2.792h-15h-2v2v32v2h2h17.667h4.332h2v-2v-24v-2L31.166,2.792z M38.166,36.792h-4.375H16.167v-32
		h12c2,0,3,4,2,8c0,0,8-3.123,8,1V36.792z"/>
	<polygon fill="#FFFFFF" stroke="#FFFFFF" stroke-miterlimit="10" points="8.812,10.219 24.156,10.25 32.562,17.969 32.562,44.188
		8.655,44.188 	"/>
	<path fill="#333333" d="M24.834,9.208h-15h-2v2v32v2h2h22h2v-2v-4.46v-1.792V19.208v-2L24.834,9.208z M31.834,43.208h-22v-32h12
		c2,0,3,4,2,8c0,0,8-3.123,8,1V43.208z"/>
</g>
</svg>
