<svg width="48px" height="48px" enable-background="new 0 0 48 48" version="1.1" viewBox="0 0 48 48" xml:space="preserve" xmlns="http://www.w3.org/2000/svg">

	<path d="M37,6L7,6v36h34V9.993L37,6z M15,8h18v8.993L32,18H16l-1-1.007V8z M37,40H11V24h2.995h17.972H37V40z" fill="#333"/>
	<polygon points="13.995 24 11 24 11 40 37 40 37 24 31.967 24" fill="#fff"/>
	<path d="M32,18l1-1.007V8H15v8.993L16,18H32z M27,9h4v8h-4V9z" fill="#fff"/>
	<rect x="27" y="9" width="4" height="8" fill="#333"/>

<g transform="matrix(.41757 0 0 .45339 13.978 21.048)">
	
		<path d="m29.385 19.796v-2.145l-3.217-1.072-0.58-1.613 1.518-3.033-1.516-1.515-3.033 1.516-1.75-0.717-1.073-3.217h-2.144l-1.072 3.217-1.609 0.547-3.033-1.518-1.518 1.516 1.518 3.033-0.721 1.784-3.217 1.072v2.144l3.217 1.074 0.723 1.775-1.52 3.034 1.518 1.515 3.033-1.516 1.609 0.553 1.072 3.219h2.143l1.074-3.219 1.75-0.722 3.033 1.519 1.516-1.516-1.516-3.034 0.578-1.608zm-10.723 2.145c-1.777 0-3.217-1.44-3.217-3.218 0-1.776 1.439-3.218 3.217-3.218s3.217 1.441 3.217 3.218c0 1.778-1.44 3.218-3.217 3.218z" fill="#333"/>
	
	
		<path d="m39.256 35.883 0.678-1.574-2.025-1.808 0.082-1.368 2.074-1.751-0.637-1.592-2.709 0.157-1.059-1.077 0.227-2.704-1.578-0.676-1.803 2.024-1.355-0.106-1.75-2.073-1.594 0.638 0.156 2.706-1.092 1.083-2.703-0.227-0.678 1.577 2.027 1.804-0.031 1.533-2.074 1.752 0.639 1.591 2.707-0.157 1.008 0.916-0.229 2.705 1.576 0.676 1.805-2.027 1.516 0.021 1.75 2.074 1.594-0.637-0.158-2.707 0.934-0.998zm-8.559-1.809c-1.307-0.562-1.912-2.074-1.35-3.381 0.561-1.305 2.074-1.91 3.381-1.348 1.307 0.561 1.908 2.074 1.35 3.381-0.56 1.306-2.076 1.909-3.381 1.348z" fill="#333"/>
	
</g></svg>
